<svg width="417" height="57" viewBox="0 0 417 57" fill="none" xmlns="http://www.w3.org/2000/svg">
<path d="M350.421 18H416V23.4286H350.421V18Z" fill="#35372D"/>
<path d="M394.5 28.8571H416V43.6623H394.5V50.0779H366V56H340.409V50.0779H323.389V56H0.5V39.7143H323.389V34.7792H340.409V39.7143H366V34.7792H394.5V28.8571Z" fill="#35372D"/>
<path d="M350.421 18H416V23.4286H350.421V18Z" stroke="#35372D"/>
<path d="M394.5 28.8571H416V43.6623H394.5V50.0779H366V56H340.409V50.0779H323.389V56H0.5V39.7143H323.389V34.7792H340.409V39.7143H366V34.7792H394.5V28.8571Z" stroke="#35372D"/>
<path d="M323 0.5H0.5V40.5H323V34H340.5V40.5H366V34H394.5V28.5H416V23H350.5V18.5H416V10.5H394.5V7.5H366V0.5H340.5V7.5H323V0.5Z" fill="#BFBFAA" stroke="#BFBFAA"/>
</svg>
